<svg width="240" height="240" viewBox="0 0 240 240" fill="none" xmlns="http://www.w3.org/2000/svg">
<circle cx="120" cy="120" r="120" fill="black"/>
<path d="M53 66H189V168H53V66Z" stroke="white" stroke-width="6"/>
<path d="M68.1545 100.25C65.5878 100.25 63.2711 99.75 61.2045 98.75C59.1378 97.75 57.3545 96.4 55.8545 94.7C54.3545 92.9667 53.1878 91.0333 52.3545 88.9C51.5545 86.7333 51.1545 84.5167 51.1545 82.25C51.1545 79.8833 51.5878 77.6333 52.4545 75.5C53.3211 73.3333 54.5211 71.4167 56.0545 69.75C57.5878 68.05 59.3878 66.7167 61.4545 65.75C63.5545 64.75 65.8211 64.25 68.2545 64.25C70.7878 64.25 73.0878 64.7667 75.1545 65.8C77.2545 66.8333 79.0378 68.2167 80.5045 69.95C82.0045 71.6833 83.1545 73.6167 83.9545 75.75C84.7878 77.8833 85.2045 80.0667 85.2045 82.3C85.2045 84.6667 84.7711 86.9333 83.9045 89.1C83.0711 91.2333 81.8878 93.15 80.3545 94.85C78.8211 96.5167 77.0045 97.8333 74.9045 98.8C72.8378 99.7667 70.5878 100.25 68.1545 100.25ZM56.8545 82.25C56.8545 83.9167 57.1211 85.5333 57.6545 87.1C58.1878 88.6667 58.9378 90.0667 59.9045 91.3C60.9045 92.5 62.1045 93.45 63.5045 94.15C64.9045 94.85 66.4711 95.2 68.2045 95.2C70.0045 95.2 71.6045 94.8333 73.0045 94.1C74.4045 93.3667 75.5711 92.3833 76.5045 91.15C77.4711 89.8833 78.2045 88.4833 78.7045 86.95C79.2045 85.3833 79.4545 83.8167 79.4545 82.25C79.4545 80.5833 79.1878 78.9833 78.6545 77.45C78.1545 75.8833 77.4045 74.5 76.4045 73.3C75.4045 72.0667 74.2045 71.1 72.8045 70.4C71.4378 69.7 69.9045 69.35 68.2045 69.35C66.4045 69.35 64.8045 69.7167 63.4045 70.45C62.0045 71.1833 60.8211 72.1667 59.8545 73.4C58.8878 74.6333 58.1378 76.0167 57.6045 77.55C57.1045 79.0833 56.8545 80.65 56.8545 82.25ZM136.152 64.5V100H130.502V84.35H112.602V100H107.002V64.5H112.602V79.35H130.502V64.5H136.152ZM174.91 100.25C172.344 100.25 170.027 99.75 167.96 98.75C165.894 97.75 164.11 96.4 162.61 94.7C161.11 92.9667 159.944 91.0333 159.11 88.9C158.31 86.7333 157.91 84.5167 157.91 82.25C157.91 79.8833 158.344 77.6333 159.21 75.5C160.077 73.3333 161.277 71.4167 162.81 69.75C164.344 68.05 166.144 66.7167 168.21 65.75C170.31 64.75 172.577 64.25 175.01 64.25C177.544 64.25 179.844 64.7667 181.91 65.8C184.01 66.8333 185.794 68.2167 187.26 69.95C188.76 71.6833 189.91 73.6167 190.71 75.75C191.544 77.8833 191.96 80.0667 191.96 82.3C191.96 84.6667 191.527 86.9333 190.66 89.1C189.827 91.2333 188.644 93.15 187.11 94.85C185.577 96.5167 183.76 97.8333 181.66 98.8C179.594 99.7667 177.344 100.25 174.91 100.25ZM163.61 82.25C163.61 83.9167 163.877 85.5333 164.41 87.1C164.944 88.6667 165.694 90.0667 166.66 91.3C167.66 92.5 168.86 93.45 170.26 94.15C171.66 94.85 173.227 95.2 174.96 95.2C176.76 95.2 178.36 94.8333 179.76 94.1C181.16 93.3667 182.327 92.3833 183.26 91.15C184.227 89.8833 184.96 88.4833 185.46 86.95C185.96 85.3833 186.21 83.8167 186.21 82.25C186.21 80.5833 185.944 78.9833 185.41 77.45C184.91 75.8833 184.16 74.5 183.16 73.3C182.16 72.0667 180.96 71.1 179.56 70.4C178.194 69.7 176.66 69.35 174.96 69.35C173.16 69.35 171.56 69.7167 170.16 70.45C168.76 71.1833 167.577 72.1667 166.61 73.4C165.644 74.6333 164.894 76.0167 164.36 77.55C163.86 79.0833 163.61 80.65 163.61 82.25ZM79.715 104.45H67.915V135H62.265V104.45H50.415V99.5H79.715V104.45ZM114.326 130.05V135H89.9756V99.5H113.876V104.45H95.5756V114.55H111.426V119.2H95.5756V130.05H114.326ZM125.652 135V99.5H150.603V104.4H131.253V114.35H141.652C145.586 114.35 148.536 115.283 150.503 117.15C152.469 118.983 153.453 121.417 153.453 124.45C153.453 126.483 153.019 128.3 152.153 129.9C151.319 131.467 150.053 132.717 148.353 133.65C146.686 134.55 144.569 135 142.003 135H125.652ZM131.253 130.1H141.253C142.786 130.1 144.019 129.817 144.952 129.25C145.919 128.683 146.603 127.967 147.003 127.1C147.436 126.2 147.653 125.267 147.653 124.3C147.653 123.333 147.469 122.433 147.103 121.6C146.736 120.767 146.069 120.1 145.103 119.6C144.169 119.067 142.852 118.8 141.152 118.8H131.253V130.1ZM188.558 130.05V135H164.208V99.5H188.108V104.45H169.808V114.55H185.658V119.2H169.808V130.05H188.558ZM79.5904 134.5V170H73.9404V154.35H56.0404V170H50.4404V134.5H56.0404V149.35H73.9404V134.5H79.5904ZM98.8486 134.5H104.149L117.949 170H112.049L108.299 160.35H94.5986L90.8986 170H84.9486L98.8486 134.5ZM107.199 156.2L101.499 140.65L95.5986 156.2H107.199ZM117.739 176.8V165.05H119.439C120.372 165.05 121.172 164.683 121.839 163.95C122.539 163.217 123.122 162.05 123.589 160.45C124.089 158.85 124.472 156.75 124.739 154.15C125.039 151.517 125.256 148.3 125.389 144.5L125.639 134.5H148.489V165.05H152.989V176.8H148.039V170H122.689V176.8H117.739ZM126.539 165.05H142.839V139.45H130.839L130.689 145.25C130.589 149.083 130.389 152.333 130.089 155C129.789 157.633 129.355 159.767 128.789 161.4C128.222 163.033 127.472 164.25 126.539 165.05ZM174.712 170.25C172.145 170.25 169.829 169.75 167.762 168.75C165.695 167.75 163.912 166.4 162.412 164.7C160.912 162.967 159.745 161.033 158.912 158.9C158.112 156.733 157.712 154.517 157.712 152.25C157.712 149.883 158.145 147.633 159.012 145.5C159.879 143.333 161.079 141.417 162.612 139.75C164.145 138.05 165.945 136.717 168.012 135.75C170.112 134.75 172.379 134.25 174.812 134.25C177.345 134.25 179.645 134.767 181.712 135.8C183.812 136.833 185.595 138.217 187.062 139.95C188.562 141.683 189.712 143.617 190.512 145.75C191.345 147.883 191.762 150.067 191.762 152.3C191.762 154.667 191.329 156.933 190.462 159.1C189.629 161.233 188.445 163.15 186.912 164.85C185.379 166.517 183.562 167.833 181.462 168.8C179.395 169.767 177.145 170.25 174.712 170.25ZM163.412 152.25C163.412 153.917 163.679 155.533 164.212 157.1C164.745 158.667 165.495 160.067 166.462 161.3C167.462 162.5 168.662 163.45 170.062 164.15C171.462 164.85 173.029 165.2 174.762 165.2C176.562 165.2 178.162 164.833 179.562 164.1C180.962 163.367 182.129 162.383 183.062 161.15C184.029 159.883 184.762 158.483 185.262 156.95C185.762 155.383 186.012 153.817 186.012 152.25C186.012 150.583 185.745 148.983 185.212 147.45C184.712 145.883 183.962 144.5 182.962 143.3C181.962 142.067 180.762 141.1 179.362 140.4C177.995 139.7 176.462 139.35 174.762 139.35C172.962 139.35 171.362 139.717 169.962 140.45C168.562 141.183 167.379 142.167 166.412 143.4C165.445 144.633 164.695 146.017 164.162 147.55C163.662 149.083 163.412 150.65 163.412 152.25Z" fill="white"/>
</svg>
