<svg width="430" height="240" viewBox="0 0 430 240" fill="none" xmlns="http://www.w3.org/2000/svg">
<circle cx="215" cy="120" r="120" fill="black"/>
<path d="M148 66H284V168H148V66Z" stroke="white" stroke-width="6"/>
<path d="M163.154 100.25C160.588 100.25 158.271 99.75 156.204 98.75C154.138 97.75 152.354 96.4 150.854 94.7C149.354 92.9667 148.188 91.0333 147.354 88.9C146.554 86.7333 146.154 84.5167 146.154 82.25C146.154 79.8833 146.588 77.6333 147.454 75.5C148.321 73.3333 149.521 71.4167 151.054 69.75C152.588 68.05 154.388 66.7167 156.454 65.75C158.554 64.75 160.821 64.25 163.254 64.25C165.788 64.25 168.088 64.7667 170.154 65.8C172.254 66.8333 174.038 68.2167 175.505 69.95C177.005 71.6833 178.154 73.6167 178.954 75.75C179.788 77.8833 180.204 80.0667 180.204 82.3C180.204 84.6667 179.771 86.9333 178.904 89.1C178.071 91.2333 176.888 93.15 175.354 94.85C173.821 96.5167 172.004 97.8333 169.904 98.8C167.838 99.7667 165.588 100.25 163.154 100.25ZM151.854 82.25C151.854 83.9167 152.121 85.5333 152.654 87.1C153.188 88.6667 153.938 90.0667 154.904 91.3C155.904 92.5 157.104 93.45 158.504 94.15C159.904 94.85 161.471 95.2 163.204 95.2C165.004 95.2 166.604 94.8333 168.004 94.1C169.404 93.3667 170.571 92.3833 171.504 91.15C172.471 89.8833 173.204 88.4833 173.704 86.95C174.204 85.3833 174.454 83.8167 174.454 82.25C174.454 80.5833 174.188 78.9833 173.654 77.45C173.154 75.8833 172.404 74.5 171.404 73.3C170.404 72.0667 169.205 71.1 167.805 70.4C166.438 69.7 164.904 69.35 163.204 69.35C161.404 69.35 159.804 69.7167 158.404 70.45C157.004 71.1833 155.821 72.1667 154.854 73.4C153.888 74.6333 153.138 76.0167 152.604 77.55C152.104 79.0833 151.854 80.65 151.854 82.25ZM231.152 64.5V100H225.502V84.35H207.602V100H202.002V64.5H207.602V79.35H225.502V64.5H231.152ZM269.91 100.25C267.344 100.25 265.027 99.75 262.96 98.75C260.894 97.75 259.11 96.4 257.61 94.7C256.11 92.9667 254.944 91.0333 254.11 88.9C253.31 86.7333 252.91 84.5167 252.91 82.25C252.91 79.8833 253.344 77.6333 254.21 75.5C255.077 73.3333 256.277 71.4167 257.81 69.75C259.344 68.05 261.144 66.7167 263.21 65.75C265.31 64.75 267.577 64.25 270.01 64.25C272.544 64.25 274.844 64.7667 276.91 65.8C279.01 66.8333 280.794 68.2167 282.26 69.95C283.76 71.6833 284.91 73.6167 285.71 75.75C286.544 77.8833 286.96 80.0667 286.96 82.3C286.96 84.6667 286.527 86.9333 285.66 89.1C284.827 91.2333 283.644 93.15 282.11 94.85C280.577 96.5167 278.76 97.8333 276.66 98.8C274.594 99.7667 272.344 100.25 269.91 100.25ZM258.61 82.25C258.61 83.9167 258.877 85.5333 259.41 87.1C259.944 88.6667 260.694 90.0667 261.66 91.3C262.66 92.5 263.86 93.45 265.26 94.15C266.66 94.85 268.227 95.2 269.96 95.2C271.76 95.2 273.36 94.8333 274.76 94.1C276.16 93.3667 277.327 92.3833 278.26 91.15C279.227 89.8833 279.96 88.4833 280.46 86.95C280.96 85.3833 281.21 83.8167 281.21 82.25C281.21 80.5833 280.944 78.9833 280.41 77.45C279.91 75.8833 279.16 74.5 278.16 73.3C277.16 72.0667 275.96 71.1 274.56 70.4C273.194 69.7 271.66 69.35 269.96 69.35C268.16 69.35 266.56 69.7167 265.16 70.45C263.76 71.1833 262.577 72.1667 261.61 73.4C260.644 74.6333 259.894 76.0167 259.36 77.55C258.86 79.0833 258.61 80.65 258.61 82.25ZM174.715 104.45H162.915V135H157.265V104.45H145.415V99.5H174.715V104.45ZM209.326 130.05V135H184.976V99.5H208.876V104.45H190.576V114.55H206.426V119.2H190.576V130.05H209.326ZM220.652 135V99.5H245.603V104.4H226.253V114.35H236.652C240.586 114.35 243.536 115.283 245.503 117.15C247.469 118.983 248.453 121.417 248.453 124.45C248.453 126.483 248.019 128.3 247.153 129.9C246.319 131.467 245.053 132.717 243.353 133.65C241.686 134.55 239.569 135 237.003 135H220.652ZM226.253 130.1H236.253C237.786 130.1 239.019 129.817 239.952 129.25C240.919 128.683 241.603 127.967 242.003 127.1C242.436 126.2 242.653 125.267 242.653 124.3C242.653 123.333 242.469 122.433 242.103 121.6C241.736 120.767 241.069 120.1 240.103 119.6C239.169 119.067 237.852 118.8 236.152 118.8H226.253V130.1ZM283.558 130.05V135H259.208V99.5H283.108V104.45H264.808V114.55H280.658V119.2H264.808V130.05H283.558ZM174.59 134.5V170H168.94V154.35H151.04V170H145.44V134.5H151.04V149.35H168.94V134.5H174.59ZM193.849 134.5H199.149L212.949 170H207.049L203.299 160.35H189.599L185.899 170H179.949L193.849 134.5ZM202.199 156.2L196.499 140.65L190.599 156.2H202.199ZM212.739 176.8V165.05H214.439C215.372 165.05 216.172 164.683 216.839 163.95C217.539 163.217 218.122 162.05 218.589 160.45C219.089 158.85 219.472 156.75 219.739 154.15C220.039 151.517 220.256 148.3 220.389 144.5L220.639 134.5H243.489V165.05H247.989V176.8H243.039V170H217.689V176.8H212.739ZM221.539 165.05H237.839V139.45H225.839L225.689 145.25C225.589 149.083 225.389 152.333 225.089 155C224.789 157.633 224.355 159.767 223.789 161.4C223.222 163.033 222.472 164.25 221.539 165.05ZM269.712 170.25C267.145 170.25 264.829 169.75 262.762 168.75C260.695 167.75 258.912 166.4 257.412 164.7C255.912 162.967 254.745 161.033 253.912 158.9C253.112 156.733 252.712 154.517 252.712 152.25C252.712 149.883 253.145 147.633 254.012 145.5C254.879 143.333 256.079 141.417 257.612 139.75C259.145 138.05 260.945 136.717 263.012 135.75C265.112 134.75 267.379 134.25 269.812 134.25C272.345 134.25 274.645 134.767 276.712 135.8C278.812 136.833 280.595 138.217 282.062 139.95C283.562 141.683 284.712 143.617 285.512 145.75C286.345 147.883 286.762 150.067 286.762 152.3C286.762 154.667 286.329 156.933 285.462 159.1C284.629 161.233 283.445 163.15 281.912 164.85C280.379 166.517 278.562 167.833 276.462 168.8C274.395 169.767 272.145 170.25 269.712 170.25ZM258.412 152.25C258.412 153.917 258.679 155.533 259.212 157.1C259.745 158.667 260.495 160.067 261.462 161.3C262.462 162.5 263.662 163.45 265.062 164.15C266.462 164.85 268.029 165.2 269.762 165.2C271.562 165.2 273.162 164.833 274.562 164.1C275.962 163.367 277.129 162.383 278.062 161.15C279.029 159.883 279.762 158.483 280.262 156.95C280.762 155.383 281.012 153.817 281.012 152.25C281.012 150.583 280.745 148.983 280.212 147.45C279.712 145.883 278.962 144.5 277.962 143.3C276.962 142.067 275.762 141.1 274.362 140.4C272.995 139.7 271.462 139.35 269.762 139.35C267.962 139.35 266.362 139.717 264.962 140.45C263.562 141.183 262.379 142.167 261.412 143.4C260.445 144.633 259.695 146.017 259.162 147.55C258.662 149.083 258.412 150.65 258.412 152.25Z" fill="white"/>
</svg>
